<svg width="44" height="88" viewBox="0 0 44 88" fill="none" xmlns="http://www.w3.org/2000/svg">
<path d="M4.54988 87.3501C3.59988 87.3501 2.64988 87.0001 1.89988 86.2501C0.449878 84.8001 0.449878 82.4001 1.89988 80.9501L34.4999 48.3501C36.8999 45.9501 36.8999 42.0501 34.4999 39.6501L1.89988 7.0501C0.449878 5.6001 0.449878 3.2001 1.89988 1.7501C3.34988 0.300098 5.74988 0.300098 7.19988 1.7501L39.7999 34.3501C42.3499 36.9001 43.7999 40.3501 43.7999 44.0001C43.7999 47.6501 42.3999 51.1001 39.7999 53.6501L7.19988 86.2501C6.44988 86.9501 5.49988 87.3501 4.54988 87.3501Z" fill="#2B9B8D"/>
</svg>
